<?xml version="1.0" encoding="UTF-8" standalone="no"?>
<!-- Created with Inkscape (http://www.inkscape.org/) -->

<svg
   width="340.54642mm"
   height="211.94844mm"
   viewBox="0 0 340.54641 211.94844"
   version="1.1"
   id="svg5"
   inkscape:version="1.1 (c68e22c387, 2021-05-23)"
   sodipodi:docname="SPJ_french.svg"
   xmlns:inkscape="http://www.inkscape.org/namespaces/inkscape"
   xmlns:sodipodi="http://sodipodi.sourceforge.net/DTD/sodipodi-0.dtd"
   xmlns="http://www.w3.org/2000/svg"
   xmlns:svg="http://www.w3.org/2000/svg">
  <sodipodi:namedview
     id="namedview7"
     pagecolor="#505050"
     bordercolor="#ffffff"
     borderopacity="1"
     inkscape:pageshadow="0"
     inkscape:pageopacity="0"
     inkscape:pagecheckerboard="1"
     inkscape:document-units="mm"
     showgrid="false"
     fit-margin-top="0"
     fit-margin-left="0"
     fit-margin-right="0"
     fit-margin-bottom="0"
     inkscape:zoom="0.77771465"
     inkscape:cx="700.12825"
     inkscape:cy="545.83002"
     inkscape:window-width="2560"
     inkscape:window-height="1377"
     inkscape:window-x="2552"
     inkscape:window-y="147"
     inkscape:window-maximized="1"
     inkscape:current-layer="layer1" />
  <defs
     id="defs2">
    <clipPath
       clipPathUnits="userSpaceOnUse"
       id="clipPath838">
      <path
         d="M 0,0.028 H 959.981 V 539.999 H 0 Z"
         clip-rule="evenodd"
         id="path836" />
    </clipPath>
  </defs>
  <g
     inkscape:label="Layer 1"
     inkscape:groupmode="layer"
     id="layer1"
     transform="translate(59.103176,-2.0537319)">
    <g
       id="g834"
       clip-path="url(#clipPath838)"
       transform="matrix(0.35277777,0,0,-0.35277777,-58.422762,193.23414)">
      <path
         d="M 0,540 H 959.981 V 0.028 H 0 Z"
         style="fill:#ffffff;fill-opacity:1;fill-rule:evenodd;stroke:none"
         id="path840" />
      <path
         d="M 0,540 H 960.009 V 0 H 0 Z"
         style="fill:#002060;fill-opacity:1;fill-rule:evenodd;stroke:#000000;stroke-width:2.25;stroke-miterlimit:4;stroke-dasharray:none;stroke-opacity:1"
         id="path842" />
      <g
         id="g844">
        <text
           transform="matrix(1,0,0,-1,87.194,463.096)"
           style="font-variant:normal;font-weight:bold;font-size:40.989px;font-family:'Comic Sans MS';-inkscape-font-specification:ComicSansMS-Bold;writing-mode:lr-tb;fill:#e9d596;fill-opacity:1;fill-rule:nonzero;stroke:none"
           id="text848"><tspan
             x="0 28.569332 52.178997 75.09185 92.840088 117.63843 137.31316 160.226 181.66325 202.64961 226.30026 244.00752 266.75641 288.7265 310.69662 330.28937 351.84958 374.59848 395.58484 419.2355 436.94275 456.24857 477.80878 495.55701 514.86285 537.52972 559.49988 582.41272 600.11993 611.59686 633.03412 653.89752 676.81036 696.48511 719.39795 740.83521 761.82153"
             y="0"
             sodipodi:role="line"
             id="tspan846">The French approach to type inference</tspan></text>
      </g>
      <path
         d="m 565.03,241.172 h 102.302 v 15.562 l 31.153,-31.153 -31.153,-31.153 v 15.591 H 565.03 Z"
         style="fill:#66ff33;fill-opacity:1;fill-rule:evenodd;stroke:none"
         id="path850" />
      <g
         id="g852">
        <path
           d="m 565.03,241.172 h 102.302 v 15.562 l 31.153,-31.153 -31.153,-31.153 v 15.591 H 565.03 Z"
           style="fill:none;stroke:#000000;stroke-width:0.73699;stroke-linecap:butt;stroke-linejoin:round;stroke-miterlimit:10;stroke-dasharray:none;stroke-opacity:1"
           id="path854" />
      </g>
      <g
         id="g856">
        <text
           transform="matrix(1,0,0,-1,598.592,217.587)"
           style="font-variant:normal;font-weight:normal;font-size:20.013px;font-family:'Comic Sans MS';-inkscape-font-specification:ComicSansMS;writing-mode:lr-tb;fill:#000000;fill-opacity:1;fill-rule:nonzero;stroke:none"
           id="text860"><tspan
             x="0 13.989087 24.495913 29.979473 39.765831"
             y="0"
             sodipodi:role="line"
             id="tspan858">Solve</tspan></text>
      </g>
      <path
         d="m 12.954,392.513 v 0 l 0.029,1.559 0.141,1.531 0.199,1.531 0.283,1.531 0.369,1.502 0.425,1.502 0.51,1.446 0.596,1.446 0.68,1.389 0.737,1.389 0.822,1.304 0.879,1.275 0.935,1.247 0.992,1.163 1.077,1.133 1.134,1.078 1.162,0.992 1.248,0.935 1.275,0.879 1.333,0.822 1.36,0.737 1.389,0.68 1.446,0.596 1.445,0.51 1.503,0.425 1.502,0.368 1.531,0.284 1.531,0.198 1.53,0.142 1.559,0.028 H 161.15 v 0 l 1.559,-0.028 1.53,-0.142 1.531,-0.198 1.531,-0.284 1.502,-0.368 1.503,-0.425 1.445,-0.51 1.446,-0.596 1.389,-0.68 1.389,-0.737 1.304,-0.822 1.275,-0.879 1.248,-0.935 1.162,-0.992 1.134,-1.078 1.077,-1.133 0.992,-1.163 0.935,-1.247 0.879,-1.275 0.822,-1.333 0.737,-1.36 0.68,-1.389 0.596,-1.446 0.51,-1.446 0.425,-1.502 0.369,-1.502 0.283,-1.531 0.199,-1.531 0.141,-1.531 0.029,-1.559 0.028,-195.562 h -0.028 l -0.029,-1.559 -0.141,-1.531 -0.199,-1.53 -0.283,-1.531 -0.369,-1.502 -0.425,-1.503 -0.51,-1.445 -0.596,-1.446 -0.68,-1.389 -0.737,-1.361 -0.794,-1.332 -0.878,-1.276 -0.964,-1.218 -0.992,-1.191 -1.077,-1.134 -1.106,-1.049 -1.19,-1.02 -1.219,-0.936 -1.276,-0.878 -1.332,-0.822 -1.361,-0.737 -1.389,-0.652 -1.445,-0.596 -1.446,-0.538 -1.503,-0.425 -1.502,-0.369 -1.531,-0.283 -1.53,-0.199 -1.531,-0.142 -1.559,-0.028 -118.602,-0.028 v 0.028 l -1.559,0.028 -1.53,0.142 -1.531,0.199 -1.531,0.283 -1.502,0.369 -1.503,0.425 -1.445,0.51 -1.446,0.595 -1.389,0.681 -1.36,0.737 -1.333,0.793 -1.275,0.879 -1.219,0.964 -1.191,0.992 -1.134,1.077 -1.048,1.106 -1.021,1.19 -0.935,1.219 -0.879,1.276 -0.822,1.332 -0.737,1.361 -0.652,1.389 -0.595,1.445 -0.539,1.446 -0.425,1.502 -0.369,1.503 -0.283,1.53 -0.199,1.531 -0.141,1.531 -0.029,1.559 z"
         style="fill:#ccecff;fill-opacity:1;fill-rule:evenodd;stroke:none"
         id="path862" />
      <g
         id="g864">
        <path
           d="m 12.954,392.513 v 0 l 0.029,1.559 0.141,1.531 0.199,1.531 0.283,1.531 0.369,1.502 0.425,1.502 0.51,1.446 0.596,1.446 0.68,1.389 0.737,1.389 0.822,1.304 0.879,1.275 0.935,1.247 0.992,1.163 1.077,1.133 1.134,1.078 1.162,0.992 1.248,0.935 1.275,0.879 1.333,0.822 1.36,0.737 1.389,0.68 1.446,0.596 1.445,0.51 1.503,0.425 1.502,0.368 1.531,0.284 1.531,0.198 1.53,0.142 1.559,0.028 H 161.15 v 0 l 1.559,-0.028 1.53,-0.142 1.531,-0.198 1.531,-0.284 1.502,-0.368 1.503,-0.425 1.445,-0.51 1.446,-0.596 1.389,-0.68 1.389,-0.737 1.304,-0.822 1.275,-0.879 1.248,-0.935 1.162,-0.992 1.134,-1.078 1.077,-1.133 0.992,-1.163 0.935,-1.247 0.879,-1.275 0.822,-1.333 0.737,-1.36 0.68,-1.389 0.596,-1.446 0.51,-1.446 0.425,-1.502 0.369,-1.502 0.283,-1.531 0.199,-1.531 0.141,-1.531 0.029,-1.559 0.028,-195.562 h -0.028 l -0.029,-1.559 -0.141,-1.531 -0.199,-1.53 -0.283,-1.531 -0.369,-1.502 -0.425,-1.503 -0.51,-1.445 -0.596,-1.446 -0.68,-1.389 -0.737,-1.361 -0.794,-1.332 -0.878,-1.276 -0.964,-1.218 -0.992,-1.191 -1.077,-1.134 -1.106,-1.049 -1.19,-1.02 -1.219,-0.936 -1.276,-0.878 -1.332,-0.822 -1.361,-0.737 -1.389,-0.652 -1.445,-0.596 -1.446,-0.538 -1.503,-0.425 -1.502,-0.369 -1.531,-0.283 -1.53,-0.199 -1.531,-0.142 -1.559,-0.028 -118.602,-0.028 v 0.028 l -1.559,0.028 -1.53,0.142 -1.531,0.199 -1.531,0.283 -1.502,0.369 -1.503,0.425 -1.445,0.51 -1.446,0.595 -1.389,0.681 -1.36,0.737 -1.333,0.793 -1.275,0.879 -1.219,0.964 -1.191,0.992 -1.134,1.077 -1.048,1.106 -1.021,1.19 -0.935,1.219 -0.879,1.276 -0.822,1.332 -0.737,1.361 -0.652,1.389 -0.595,1.445 -0.539,1.446 -0.425,1.502 -0.369,1.503 -0.283,1.53 -0.199,1.531 -0.141,1.531 -0.029,1.559 z"
           style="fill:none;stroke:#000000;stroke-width:0.73699;stroke-linecap:butt;stroke-linejoin:round;stroke-miterlimit:10;stroke-dasharray:none;stroke-opacity:1"
           id="path866" />
      </g>
      <g
         id="g868">
        <text
           transform="matrix(1,0,0,-1,61.002,385.909)"
           style="font-variant:normal;font-weight:normal;font-size:24.009px;font-family:'Comic Sans MS';-inkscape-font-specification:ComicSansMS;writing-mode:lr-tb;fill:#000000;fill-opacity:1;fill-rule:nonzero;stroke:none"
           id="text872"><tspan
             x="0 18.486931 30.683502 42.375885 55.268719 68.449661 75.028122 81.60659"
             y="0"
             sodipodi:role="line"
             id="tspan870">Haskell</tspan></text>
      </g>
      <g
         id="g874">
        <text
           transform="matrix(1,0,0,-1,64.998,357.109)"
           style="font-variant:normal;font-weight:normal;font-size:24.009px;font-family:'Comic Sans MS';-inkscape-font-specification:ComicSansMS;writing-mode:lr-tb;fill:#000000;fill-opacity:1;fill-rule:nonzero;stroke:none"
           id="text878"><tspan
             x="0 11.596347 24.201073 36.685753 48.186062 60.574707 73.755646"
             y="0"
             sodipodi:role="line"
             id="tspan876">source</tspan></text>
      </g>
      <g
         id="g880">
        <text
           transform="matrix(1,0,0,-1,55.814,328.309)"
           style="font-variant:normal;font-weight:normal;font-size:24.009px;font-family:'Comic Sans MS';-inkscape-font-specification:ComicSansMS;writing-mode:lr-tb;fill:#000000;fill-opacity:1;fill-rule:nonzero;stroke:none"
           id="text884"><tspan
             x="0 12.892833 24.393145 36.997868 49.698631 61.19894 73.491547"
             y="0"
             sodipodi:role="line"
             id="tspan882">program</tspan></text>
      </g>
      <g
         id="g886">
        <text
           transform="matrix(1,0,0,-1,70.413,270.709)"
           style="font-variant:normal;font-weight:normal;font-size:24.009px;font-family:'Comic Sans MS';-inkscape-font-specification:ComicSansMS;writing-mode:lr-tb;fill:#000000;fill-opacity:1;fill-rule:nonzero;stroke:none"
           id="text890"><tspan
             x="0 13.276977 25.473549 36.973862 49.674622 62.85556"
             y="0"
             sodipodi:role="line"
             id="tspan888">Large</tspan></text>
      </g>
      <g
         id="g892">
        <text
           transform="matrix(1,0,0,-1,33.591,241.909)"
           style="font-variant:normal;font-weight:normal;font-size:24.009px;font-family:'Comic Sans MS';-inkscape-font-specification:ComicSansMS;writing-mode:lr-tb;fill:#000000;fill-opacity:1;fill-rule:nonzero;stroke:none"
           id="text896"><tspan
             x="0 11.596347 24.081026 36.661743 47.969982 60.166553 74.355873 80.958351 88.137039 104.53519 111.30573 122.51793 136.49117"
             y="0"
             sodipodi:role="line"
             id="tspan894">syntax, with</tspan></text>
      </g>
      <g
         id="g898">
        <text
           transform="matrix(1,0,0,-1,42.293,213.109)"
           style="font-variant:normal;font-weight:normal;font-size:24.009px;font-family:'Comic Sans MS';-inkscape-font-specification:ComicSansMS;writing-mode:lr-tb;fill:#000000;fill-opacity:1;fill-rule:nonzero;stroke:none"
           id="text902"><tspan
             x="0 18.606976 30.899584 43.480301 55.964977 63.143669 81.750648 93.94722 106.52793 119.01261"
             y="0"
             sodipodi:role="line"
             id="tspan900">many many</tspan></text>
      </g>
      <g
         id="g904">
        <text
           transform="matrix(1,0,0,-1,29.906,184.309)"
           style="font-variant:normal;font-weight:normal;font-size:24.009px;font-family:'Comic Sans MS';-inkscape-font-specification:ComicSansMS;writing-mode:lr-tb;fill:#000000;fill-opacity:1;fill-rule:nonzero;stroke:none"
           id="text908"><tspan
             x="0 12.388644 24.993368 37.574085 49.170433 60.478672 71.978981 84.463661 96.852303 108.06451 120.74126 132.24158"
             y="0"
             sodipodi:role="line"
             id="tspan906">constructors</tspan></text>
      </g>
      <path
         d="m 386.504,274.28 v 0 l 0.028,1.219 0.114,1.247 0.141,1.219 0.227,1.191 0.284,1.19 0.368,1.191 0.397,1.162 0.482,1.134 0.51,1.106 0.595,1.077 0.652,1.049 0.681,1.02 0.765,0.964 0.794,0.935 0.85,0.879 0.879,0.85 0.935,0.794 0.964,0.765 1.021,0.681 1.048,0.652 1.078,0.595 1.105,0.51 1.134,0.482 1.162,0.397 1.191,0.368 1.19,0.284 1.191,0.227 1.219,0.141 1.247,0.114 1.219,0.028 h 120.217 v 0 l 1.219,-0.028 1.247,-0.114 1.219,-0.141 1.191,-0.227 1.19,-0.284 1.191,-0.368 1.162,-0.397 1.134,-0.482 1.105,-0.51 1.078,-0.595 1.048,-0.652 1.021,-0.681 0.964,-0.765 0.935,-0.794 0.879,-0.85 0.85,-0.879 0.794,-0.935 0.765,-0.964 0.681,-1.02 0.652,-1.049 0.595,-1.077 0.51,-1.106 0.482,-1.134 0.397,-1.162 0.368,-1.191 0.284,-1.19 0.227,-1.191 0.141,-1.219 0.114,-1.247 0.028,-1.219 0.028,-93.94 h -0.028 l -0.028,-1.219 -0.114,-1.219 -0.141,-1.219 -0.227,-1.218 -0.284,-1.191 -0.34,-1.191 -0.425,-1.162 -0.454,-1.134 -0.538,-1.105 -0.595,-1.077 -0.624,-1.049 -0.709,-0.992 -0.737,-0.992 -0.793,-0.936 -0.851,-0.879 -0.907,-0.85 -0.907,-0.794 -0.992,-0.765 -1.021,-0.68 -1.02,-0.652 -1.077,-0.567 -1.134,-0.539 -1.134,-0.482 -1.134,-0.397 -1.19,-0.368 -1.191,-0.283 -1.219,-0.227 -1.219,-0.142 -1.219,-0.113 -1.219,-0.029 -120.245,-0.028 v 0.028 l -1.219,0.029 -1.219,0.113 -1.219,0.142 -1.219,0.227 -1.19,0.283 -1.191,0.34 -1.162,0.425 -1.134,0.454 -1.105,0.538 -1.078,0.596 -1.048,0.623 -0.993,0.709 -0.992,0.737 -0.935,0.794 -0.879,0.85 -0.85,0.907 -0.794,0.907 -0.765,0.992 -0.681,1.021 -0.652,1.02 -0.567,1.078 -0.538,1.133 -0.482,1.134 -0.397,1.134 -0.368,1.191 -0.284,1.19 -0.227,1.219 -0.141,1.219 -0.114,1.219 -0.028,1.219 z"
         style="fill:#ffff00;fill-opacity:1;fill-rule:evenodd;stroke:none"
         id="path910" />
      <g
         id="g912">
        <path
           d="m 386.504,274.28 v 0 l 0.028,1.219 0.114,1.247 0.141,1.219 0.227,1.191 0.284,1.19 0.368,1.191 0.397,1.162 0.482,1.134 0.51,1.106 0.595,1.077 0.652,1.049 0.681,1.02 0.765,0.964 0.794,0.935 0.85,0.879 0.879,0.85 0.935,0.794 0.964,0.765 1.021,0.681 1.048,0.652 1.078,0.595 1.105,0.51 1.134,0.482 1.162,0.397 1.191,0.368 1.19,0.284 1.191,0.227 1.219,0.141 1.247,0.114 1.219,0.028 h 120.217 v 0 l 1.219,-0.028 1.247,-0.114 1.219,-0.141 1.191,-0.227 1.19,-0.284 1.191,-0.368 1.162,-0.397 1.134,-0.482 1.105,-0.51 1.078,-0.595 1.048,-0.652 1.021,-0.681 0.964,-0.765 0.935,-0.794 0.879,-0.85 0.85,-0.879 0.794,-0.935 0.765,-0.964 0.681,-1.02 0.652,-1.049 0.595,-1.077 0.51,-1.106 0.482,-1.134 0.397,-1.162 0.368,-1.191 0.284,-1.19 0.227,-1.191 0.141,-1.219 0.114,-1.247 0.028,-1.219 0.028,-93.94 h -0.028 l -0.028,-1.219 -0.114,-1.219 -0.141,-1.219 -0.227,-1.218 -0.284,-1.191 -0.34,-1.191 -0.425,-1.162 -0.454,-1.134 -0.538,-1.105 -0.595,-1.077 -0.624,-1.049 -0.709,-0.992 -0.737,-0.992 -0.793,-0.936 -0.851,-0.879 -0.907,-0.85 -0.907,-0.794 -0.992,-0.765 -1.021,-0.68 -1.02,-0.652 -1.077,-0.567 -1.134,-0.539 -1.134,-0.482 -1.134,-0.397 -1.19,-0.368 -1.191,-0.283 -1.219,-0.227 -1.219,-0.142 -1.219,-0.113 -1.219,-0.029 -120.245,-0.028 v 0.028 l -1.219,0.029 -1.219,0.113 -1.219,0.142 -1.219,0.227 -1.19,0.283 -1.191,0.34 -1.162,0.425 -1.134,0.454 -1.105,0.538 -1.078,0.596 -1.048,0.623 -0.993,0.709 -0.992,0.737 -0.935,0.794 -0.879,0.85 -0.85,0.907 -0.794,0.907 -0.765,0.992 -0.681,1.021 -0.652,1.02 -0.567,1.078 -0.538,1.133 -0.482,1.134 -0.397,1.134 -0.368,1.191 -0.284,1.19 -0.227,1.219 -0.141,1.219 -0.114,1.219 -0.028,1.219 z"
           style="fill:none;stroke:#000000;stroke-width:0.73699;stroke-linecap:butt;stroke-linejoin:round;stroke-miterlimit:10;stroke-dasharray:none;stroke-opacity:1"
           id="path914" />
      </g>
      <g
         id="g916">
        <text
           transform="matrix(1,0,0,-1,416.409,267.307)"
           style="font-variant:normal;font-weight:normal;font-size:20.013px;font-family:'Comic Sans MS';-inkscape-font-specification:ComicSansMS;writing-mode:lr-tb;fill:#000000;fill-opacity:1;fill-rule:nonzero;stroke:none"
           id="text920"><tspan
             x="0 12.087852 22.674728 33.08149 42.787792 52.273956 61.880196 72.086823 77.690468 88.177277 97.663437"
             y="0"
             sodipodi:role="line"
             id="tspan918">Constraints</tspan></text>
      </g>
      <g
         id="g922">
        <text
           transform="matrix(1,0,0,-1,407.906,219.288)"
           style="font-variant:normal;font-weight:normal;font-size:20.013px;font-family:'Comic Sans MS';-inkscape-font-specification:ComicSansMS;writing-mode:lr-tb;fill:#000000;fill-opacity:1;fill-rule:nonzero;stroke:none"
           id="text926"><tspan
             x="0 13.889022 29.479149 39.68578 45.169342 50.652905 56.636791 66.343094 76.82991 87.236664 96.722832 106.92946 118.81718 124.32076"
             y="0"
             sodipodi:role="line"
             id="tspan924">Small syntax,</tspan></text>
      </g>
      <g
         id="g928">
        <text
           transform="matrix(1,0,0,-1,429.506,195.307)"
           style="font-variant:normal;font-weight:normal;font-size:20.013px;font-family:'Comic Sans MS';-inkscape-font-specification:ComicSansMS;writing-mode:lr-tb;fill:#000000;fill-opacity:1;fill-rule:nonzero;stroke:none"
           id="text932"><tspan
             x="0 13.688892 19.372583 28.778694 40.286167 46.370121 56.55674 67.463821 81.152718"
             y="0"
             sodipodi:role="line"
             id="tspan930">with few</tspan></text>
      </g>
      <g
         id="g934">
        <text
           transform="matrix(1,0,0,-1,410.003,171.298)"
           style="font-variant:normal;font-weight:normal;font-size:20.013px;font-family:'Comic Sans MS';-inkscape-font-specification:ComicSansMS;writing-mode:lr-tb;fill:#000000;fill-opacity:1;fill-rule:nonzero;stroke:none"
           id="text938"><tspan
             x="0 10.286682 20.87356 31.280319 40.986626 50.472786 60.079025 70.485786 80.772469 90.258629 100.8455 110.45174"
             y="0"
             sodipodi:role="line"
             id="tspan936">constructors</tspan></text>
      </g>
      <path
         d="m 203.471,334.176 h 102.302 v 27.581 l 55.162,-55.162 -55.162,-55.162 v 27.581 H 203.471 Z"
         style="fill:#66ff33;fill-opacity:1;fill-rule:evenodd;stroke:none"
         id="path940" />
      <g
         id="g942">
        <path
           d="m 203.471,334.176 h 102.302 v 27.581 l 55.162,-55.162 -55.162,-55.162 v 27.581 H 203.471 Z"
           style="fill:none;stroke:#000000;stroke-width:0.73699;stroke-linecap:butt;stroke-linejoin:round;stroke-miterlimit:10;stroke-dasharray:none;stroke-opacity:1"
           id="path944" />
      </g>
      <g
         id="g946">
        <text
           transform="matrix(1,0,0,-1,219.6,310.592)"
           style="font-variant:normal;font-weight:normal;font-size:20.013px;font-family:'Comic Sans MS';-inkscape-font-specification:ComicSansMS;writing-mode:lr-tb;fill:#000000;fill-opacity:1;fill-rule:nonzero;stroke:none"
           id="text950"><tspan
             x="0 12.087852 22.594677 33.08149 42.787792 52.273956 61.880196 72.086823 77.690468 88.177277 97.663437"
             y="0"
             sodipodi:role="line"
             id="tspan948">Constraint</tspan></text>
      </g>
      <g
         id="g952">
        <text
           transform="matrix(1,0,0,-1,219.005,286.611)"
           style="font-variant:normal;font-weight:normal;font-size:20.013px;font-family:'Comic Sans MS';-inkscape-font-specification:ComicSansMS;writing-mode:lr-tb;fill:#000000;fill-opacity:1;fill-rule:nonzero;stroke:none"
           id="text956"><tspan
             x="0 10.686942 21.594027 32.000786 42.907871 52.514111 62.720741 72.206902 77.810547 88.397423"
             y="0"
             sodipodi:role="line"
             id="tspan954">generation</tspan></text>
      </g>
      <path
         d="m 706.847,206.334 v 0 0.312 l 0.029,0.283 0.028,0.312 0.057,0.283 0.085,0.312 0.085,0.284 0.085,0.283 0.141,0.284 0.114,0.255 0.142,0.283 0.17,0.255 0.17,0.227 0.17,0.255 0.198,0.227 0.199,0.227 0.226,0.198 0.227,0.199 0.255,0.17 0.227,0.17 0.284,0.17 0.255,0.142 0.255,0.113 0.283,0.142 0.284,0.085 0.283,0.085 0.312,0.085 0.283,0.056 0.312,0.029 0.284,0.028 h 0.312 204.463 v 0 h 0.311 l 0.284,-0.028 0.312,-0.029 0.283,-0.056 0.312,-0.085 0.283,-0.085 0.284,-0.085 0.283,-0.142 0.255,-0.113 0.284,-0.142 0.255,-0.17 0.227,-0.17 0.255,-0.17 0.227,-0.199 0.226,-0.198 0.199,-0.227 0.198,-0.227 0.17,-0.255 0.17,-0.227 0.171,-0.283 0.141,-0.255 0.114,-0.255 0.141,-0.284 0.085,-0.283 0.085,-0.284 0.086,-0.312 0.056,-0.283 0.029,-0.312 0.028,-0.283 v -0.312 l 0.028,-23.017 v 0 -0.312 l -0.028,-0.284 -0.028,-0.312 -0.057,-0.283 -0.085,-0.312 -0.085,-0.283 -0.085,-0.284 -0.142,-0.283 -0.113,-0.255 -0.142,-0.255 -0.17,-0.284 -0.17,-0.227 -0.17,-0.255 -0.199,-0.227 -0.198,-0.226 -0.227,-0.199 -0.227,-0.198 -0.255,-0.17 -0.227,-0.17 -0.255,-0.17 -0.283,-0.142 -0.255,-0.114 -0.284,-0.141 -0.283,-0.085 -0.284,-0.085 -0.312,-0.085 -0.283,-0.057 -0.312,-0.028 -0.283,-0.029 h -0.312 l -204.491,-0.028 v 0 h -0.312 l -0.284,0.028 -0.312,0.029 -0.283,0.056 -0.312,0.085 -0.283,0.085 -0.284,0.085 -0.283,0.142 -0.255,0.113 -0.255,0.142 -0.284,0.17 -0.227,0.17 -0.255,0.17 -0.227,0.199 -0.226,0.198 -0.199,0.227 -0.198,0.227 -0.17,0.255 -0.17,0.227 -0.17,0.255 -0.142,0.283 -0.114,0.255 -0.141,0.284 -0.085,0.283 -0.085,0.284 -0.085,0.312 -0.057,0.283 -0.028,0.312 -0.029,0.283 v 0.312 z"
         style="fill:#ffff00;fill-opacity:1;fill-rule:evenodd;stroke:none"
         id="path958" />
      <g
         id="g960">
        <path
           d="m 706.847,206.334 v 0 0.312 l 0.029,0.283 0.028,0.312 0.057,0.283 0.085,0.312 0.085,0.284 0.085,0.283 0.141,0.284 0.114,0.255 0.142,0.283 0.17,0.255 0.17,0.227 0.17,0.255 0.198,0.227 0.199,0.227 0.226,0.198 0.227,0.199 0.255,0.17 0.227,0.17 0.284,0.17 0.255,0.142 0.255,0.113 0.283,0.142 0.284,0.085 0.283,0.085 0.312,0.085 0.283,0.056 0.312,0.029 0.284,0.028 h 0.312 204.463 v 0 h 0.311 l 0.284,-0.028 0.312,-0.029 0.283,-0.056 0.312,-0.085 0.283,-0.085 0.284,-0.085 0.283,-0.142 0.255,-0.113 0.284,-0.142 0.255,-0.17 0.227,-0.17 0.255,-0.17 0.227,-0.199 0.226,-0.198 0.199,-0.227 0.198,-0.227 0.17,-0.255 0.17,-0.227 0.171,-0.283 0.141,-0.255 0.114,-0.255 0.141,-0.284 0.085,-0.283 0.085,-0.284 0.086,-0.312 0.056,-0.283 0.029,-0.312 0.028,-0.283 v -0.312 l 0.028,-23.017 v 0 -0.312 l -0.028,-0.284 -0.028,-0.312 -0.057,-0.283 -0.085,-0.312 -0.085,-0.283 -0.085,-0.284 -0.142,-0.283 -0.113,-0.255 -0.142,-0.255 -0.17,-0.284 -0.17,-0.227 -0.17,-0.255 -0.199,-0.227 -0.198,-0.226 -0.227,-0.199 -0.227,-0.198 -0.255,-0.17 -0.227,-0.17 -0.255,-0.17 -0.283,-0.142 -0.255,-0.114 -0.284,-0.141 -0.283,-0.085 -0.284,-0.085 -0.312,-0.085 -0.283,-0.057 -0.312,-0.028 -0.283,-0.029 h -0.312 l -204.491,-0.028 v 0 h -0.312 l -0.284,0.028 -0.312,0.029 -0.283,0.056 -0.312,0.085 -0.283,0.085 -0.284,0.085 -0.283,0.142 -0.255,0.113 -0.255,0.142 -0.284,0.17 -0.227,0.17 -0.255,0.17 -0.227,0.199 -0.226,0.198 -0.199,0.227 -0.198,0.227 -0.17,0.255 -0.17,0.227 -0.17,0.255 -0.142,0.283 -0.114,0.255 -0.141,0.284 -0.085,0.283 -0.085,0.284 -0.085,0.312 -0.057,0.283 -0.028,0.312 -0.029,0.283 v 0.312 z"
           style="fill:none;stroke:#000000;stroke-width:0.73699;stroke-linecap:butt;stroke-linejoin:round;stroke-miterlimit:10;stroke-dasharray:none;stroke-opacity:1"
           id="path962" />
      </g>
      <g
         id="g964">
        <text
           transform="matrix(1,0,0,-1,725.499,186.803)"
           style="font-variant:normal;font-weight:normal;font-size:20.013px;font-family:'Comic Sans MS';-inkscape-font-specification:ComicSansMS;writing-mode:lr-tb;fill:#000000;fill-opacity:1;fill-rule:nonzero;stroke:none"
           id="text968"><tspan
             x="0 12.588177 23.495262 33.201569 38.885258 50.592865 61.079678 71.286308 76.769867 82.753754 93.040436 103.62731 114.03407 123.74038 133.22655 142.83278 153.03941 158.7231 169.12987"
             y="0"
             sodipodi:role="line"
             id="tspan966">Residual constraint</tspan></text>
      </g>
      <path
         d="m 382.45,399.628 v 0 l 0.029,0.907 0.056,0.908 0.114,0.878 0.17,0.907 0.227,0.879 0.255,0.85 0.283,0.851 0.369,0.85 0.368,0.794 0.454,0.822 0.453,0.765 0.511,0.737 0.567,0.709 0.566,0.709 0.624,0.652 0.652,0.623 0.709,0.567 0.708,0.567 0.737,0.51 0.794,0.454 0.794,0.453 0.793,0.369 0.851,0.368 0.85,0.284 0.851,0.255 0.878,0.227 0.907,0.17 0.879,0.113 0.907,0.057 0.907,0.028 h 127.304 v 0 l 0.907,-0.028 0.907,-0.057 0.879,-0.113 0.907,-0.17 0.879,-0.227 0.85,-0.255 0.851,-0.284 0.85,-0.368 0.794,-0.369 0.822,-0.453 0.765,-0.454 0.737,-0.51 0.709,-0.567 0.709,-0.567 0.652,-0.623 0.623,-0.652 0.567,-0.709 0.567,-0.709 0.51,-0.737 0.454,-0.793 0.453,-0.794 0.369,-0.794 0.368,-0.85 0.284,-0.851 0.255,-0.85 0.227,-0.879 0.17,-0.907 0.113,-0.878 0.057,-0.908 0.028,-0.907 0.029,-69.137 h -0.029 l -0.028,-0.907 -0.057,-0.907 -0.113,-0.879 -0.17,-0.878 -0.227,-0.879 -0.255,-0.879 -0.284,-0.85 -0.368,-0.822 -0.369,-0.822 -0.425,-0.794 -0.482,-0.765 -0.51,-0.766 -0.538,-0.708 -0.596,-0.681 -0.623,-0.652 -0.652,-0.623 -0.681,-0.596 -0.737,-0.538 -0.737,-0.51 -0.765,-0.482 -0.794,-0.425 -0.822,-0.397 -0.822,-0.34 -0.85,-0.312 -0.879,-0.255 -0.879,-0.227 -0.878,-0.142 -0.879,-0.142 -0.907,-0.056 -0.907,-0.029 -127.333,-0.028 v 0.028 l -0.907,0.029 -0.907,0.056 -0.879,0.114 -0.878,0.17 -0.879,0.227 -0.879,0.255 -0.85,0.283 -0.822,0.369 -0.822,0.368 -0.794,0.425 -0.765,0.482 -0.766,0.511 -0.708,0.538 -0.681,0.595 -0.652,0.624 -0.623,0.652 -0.595,0.68 -0.539,0.737 -0.51,0.737 -0.482,0.766 -0.425,0.793 -0.397,0.822 -0.34,0.822 -0.312,0.851 -0.255,0.879 -0.227,0.878 -0.142,0.879 -0.142,0.879 -0.056,0.907 -0.029,0.907 z"
         style="fill:#ccecff;fill-opacity:1;fill-rule:evenodd;stroke:none"
         id="path970" />
      <g
         id="g972">
        <path
           d="m 382.45,399.628 v 0 l 0.029,0.907 0.056,0.908 0.114,0.878 0.17,0.907 0.227,0.879 0.255,0.85 0.283,0.851 0.369,0.85 0.368,0.794 0.454,0.822 0.453,0.765 0.511,0.737 0.567,0.709 0.566,0.709 0.624,0.652 0.652,0.623 0.709,0.567 0.708,0.567 0.737,0.51 0.794,0.454 0.794,0.453 0.793,0.369 0.851,0.368 0.85,0.284 0.851,0.255 0.878,0.227 0.907,0.17 0.879,0.113 0.907,0.057 0.907,0.028 h 127.304 v 0 l 0.907,-0.028 0.907,-0.057 0.879,-0.113 0.907,-0.17 0.879,-0.227 0.85,-0.255 0.851,-0.284 0.85,-0.368 0.794,-0.369 0.822,-0.453 0.765,-0.454 0.737,-0.51 0.709,-0.567 0.709,-0.567 0.652,-0.623 0.623,-0.652 0.567,-0.709 0.567,-0.709 0.51,-0.737 0.454,-0.793 0.453,-0.794 0.369,-0.794 0.368,-0.85 0.284,-0.851 0.255,-0.85 0.227,-0.879 0.17,-0.907 0.113,-0.878 0.057,-0.908 0.028,-0.907 0.029,-69.137 h -0.029 l -0.028,-0.907 -0.057,-0.907 -0.113,-0.879 -0.17,-0.878 -0.227,-0.879 -0.255,-0.879 -0.284,-0.85 -0.368,-0.822 -0.369,-0.822 -0.425,-0.794 -0.482,-0.765 -0.51,-0.766 -0.538,-0.708 -0.596,-0.681 -0.623,-0.652 -0.652,-0.623 -0.681,-0.596 -0.737,-0.538 -0.737,-0.51 -0.765,-0.482 -0.794,-0.425 -0.822,-0.397 -0.822,-0.34 -0.85,-0.312 -0.879,-0.255 -0.879,-0.227 -0.878,-0.142 -0.879,-0.142 -0.907,-0.056 -0.907,-0.029 -127.333,-0.028 v 0.028 l -0.907,0.029 -0.907,0.056 -0.879,0.114 -0.878,0.17 -0.879,0.227 -0.879,0.255 -0.85,0.283 -0.822,0.369 -0.822,0.368 -0.794,0.425 -0.765,0.482 -0.766,0.511 -0.708,0.538 -0.681,0.595 -0.652,0.624 -0.623,0.652 -0.595,0.68 -0.539,0.737 -0.51,0.737 -0.482,0.766 -0.425,0.793 -0.397,0.822 -0.34,0.822 -0.312,0.851 -0.255,0.879 -0.227,0.878 -0.142,0.879 -0.142,0.879 -0.056,0.907 -0.029,0.907 z"
           style="fill:none;stroke:#000000;stroke-width:0.73699;stroke-linecap:butt;stroke-linejoin:round;stroke-miterlimit:10;stroke-dasharray:none;stroke-opacity:1"
           id="path974" />
      </g>
      <g
         id="g976">
        <text
           transform="matrix(1,0,0,-1,401.896,384.208)"
           style="font-variant:normal;font-weight:normal;font-size:24.009px;font-family:'Comic Sans MS';-inkscape-font-specification:ComicSansMS;writing-mode:lr-tb;fill:#000000;fill-opacity:1;fill-rule:nonzero;stroke:none"
           id="text980"><tspan
             x="0 14.981616 21.560081 33.756653 48.042007 60.646732 72.147041 84.34362 95.651855 108.83279 122.92608"
             y="0"
             sodipodi:role="line"
             id="tspan978">Elaborated</tspan></text>
      </g>
      <g
         id="g982">
        <text
           transform="matrix(1,0,0,-1,417.288,355.408)"
           style="font-variant:normal;font-weight:normal;font-size:24.009px;font-family:'Comic Sans MS';-inkscape-font-specification:ComicSansMS;writing-mode:lr-tb;fill:#000000;fill-opacity:1;fill-rule:nonzero;stroke:none"
           id="text986"><tspan
             x="0 12.892833 24.393145 36.997868 49.698631 61.19894 73.491547 92.098526"
             y="0"
             sodipodi:role="line"
             id="tspan984">program</tspan></text>
      </g>
      <g
         id="g988">
        <text
           transform="matrix(1,0,0,-1,397.106,326.608)"
           style="font-variant:normal;font-weight:normal;font-size:24.009px;font-family:'Comic Sans MS';-inkscape-font-specification:ComicSansMS;writing-mode:lr-tb;fill:#000000;fill-opacity:1;fill-rule:nonzero;stroke:none"
           id="text992"><tspan
             x="0 16.494183 23.192694 34.500935 48.378136 55.556828 65.040382 78.91758 91.522308 98.100777 111.28172 122.87806"
             y="0"
             sodipodi:role="line"
             id="tspan990">with “holes”</tspan></text>
      </g>
      <path
         d="m 701.688,92.041 h 41.783 v 76.507 h 83.594 V 92.041 h 41.811 L 785.282,15.534 Z"
         style="fill:#66ff33;fill-opacity:1;fill-rule:evenodd;stroke:none"
         id="path994" />
      <g
         id="g996">
        <path
           d="m 701.688,92.041 h 41.783 v 76.507 h 83.594 V 92.041 h 41.811 L 785.282,15.534 Z"
           style="fill:none;stroke:#000000;stroke-width:0.73699;stroke-linecap:butt;stroke-linejoin:round;stroke-miterlimit:10;stroke-dasharray:none;stroke-opacity:1"
           id="path998" />
      </g>
      <g
         id="g1000">
        <text
           transform="matrix(1,0,0,-1,756.595,114.803)"
           style="font-variant:normal;font-weight:normal;font-size:18px;font-family:'Comic Sans MS';-inkscape-font-specification:ComicSansMS;writing-mode:lr-tb;fill:#000000;fill-opacity:1;fill-rule:nonzero;stroke:none"
           id="text1004"><tspan
             x="0 11.304 21.096001 30.690001 40.175999 48.779999"
             y="0"
             sodipodi:role="line"
             id="tspan1002">Report</tspan></text>
      </g>
      <g
         id="g1006">
        <text
           transform="matrix(1,0,0,-1,758.296,93.203)"
           style="font-variant:normal;font-weight:normal;font-size:18px;font-family:'Comic Sans MS';-inkscape-font-specification:ComicSansMS;writing-mode:lr-tb;fill:#000000;fill-opacity:1;fill-rule:nonzero;stroke:none"
           id="text1010"><tspan
             x="0 9.7919998 18.396 27.072001 36.557999 45.161999"
             y="0"
             sodipodi:role="line"
             id="tspan1008">errors</tspan></text>
      </g>
      <path
         d="m 764.589,402.151 v 0 l 0.028,0.907 0.057,0.907 0.113,0.879 0.17,0.907 0.227,0.879 0.255,0.85 0.284,0.851 0.368,0.85 0.369,0.794 0.453,0.822 0.454,0.765 0.51,0.737 0.567,0.709 0.567,0.709 0.624,0.652 0.652,0.623 0.708,0.567 0.709,0.567 0.737,0.51 0.794,0.454 0.793,0.453 0.794,0.369 0.85,0.368 0.851,0.284 0.85,0.255 0.879,0.227 0.907,0.17 0.879,0.113 0.907,0.057 0.907,0.028 h 127.304 v 0 l 0.907,-0.028 0.907,-0.057 0.879,-0.113 0.907,-0.17 0.879,-0.227 0.85,-0.255 0.85,-0.284 0.851,-0.368 0.794,-0.369 0.822,-0.453 0.765,-0.454 0.737,-0.51 0.709,-0.567 0.708,-0.567 0.652,-0.623 0.624,-0.652 0.567,-0.709 0.567,-0.709 0.51,-0.737 0.453,-0.793 0.454,-0.794 0.369,-0.794 0.368,-0.85 0.284,-0.851 0.255,-0.85 0.226,-0.879 0.17,-0.907 0.114,-0.879 0.057,-0.907 0.028,-0.907 0.028,-69.137 h -0.028 l -0.028,-0.907 -0.057,-0.907 -0.114,-0.879 -0.17,-0.878 -0.226,-0.879 -0.255,-0.879 -0.284,-0.85 -0.368,-0.822 -0.369,-0.822 -0.425,-0.794 -0.482,-0.766 -0.51,-0.765 -0.539,-0.709 -0.595,-0.68 -0.624,-0.652 -0.652,-0.623 -0.68,-0.596 -0.737,-0.538 -0.737,-0.511 -0.765,-0.481 -0.794,-0.426 -0.822,-0.396 -0.822,-0.341 -0.851,-0.311 -0.878,-0.256 -0.879,-0.226 -0.879,-0.142 -0.879,-0.142 -0.907,-0.056 -0.907,-0.029 -127.332,-0.028 v 0.028 l -0.907,0.029 -0.907,0.056 -0.879,0.114 -0.879,0.17 -0.878,0.226 -0.879,0.256 -0.851,0.283 -0.822,0.369 -0.822,0.368 -0.793,0.425 -0.766,0.482 -0.765,0.51 -0.709,0.539 -0.68,0.595 -0.652,0.624 -0.624,0.652 -0.595,0.68 -0.538,0.737 -0.511,0.737 -0.482,0.766 -0.425,0.793 -0.397,0.822 -0.34,0.822 -0.312,0.851 -0.255,0.878 -0.227,0.879 -0.141,0.879 -0.142,0.879 -0.057,0.907 -0.028,0.907 z"
         style="fill:#ccecff;fill-opacity:1;fill-rule:evenodd;stroke:none"
         id="path1012" />
      <g
         id="g1014">
        <path
           d="m 764.589,402.151 v 0 l 0.028,0.907 0.057,0.907 0.113,0.879 0.17,0.907 0.227,0.879 0.255,0.85 0.284,0.851 0.368,0.85 0.369,0.794 0.453,0.822 0.454,0.765 0.51,0.737 0.567,0.709 0.567,0.709 0.624,0.652 0.652,0.623 0.708,0.567 0.709,0.567 0.737,0.51 0.794,0.454 0.793,0.453 0.794,0.369 0.85,0.368 0.851,0.284 0.85,0.255 0.879,0.227 0.907,0.17 0.879,0.113 0.907,0.057 0.907,0.028 h 127.304 v 0 l 0.907,-0.028 0.907,-0.057 0.879,-0.113 0.907,-0.17 0.879,-0.227 0.85,-0.255 0.85,-0.284 0.851,-0.368 0.794,-0.369 0.822,-0.453 0.765,-0.454 0.737,-0.51 0.709,-0.567 0.708,-0.567 0.652,-0.623 0.624,-0.652 0.567,-0.709 0.567,-0.709 0.51,-0.737 0.453,-0.793 0.454,-0.794 0.369,-0.794 0.368,-0.85 0.284,-0.851 0.255,-0.85 0.226,-0.879 0.17,-0.907 0.114,-0.879 0.057,-0.907 0.028,-0.907 0.028,-69.137 h -0.028 l -0.028,-0.907 -0.057,-0.907 -0.114,-0.879 -0.17,-0.878 -0.226,-0.879 -0.255,-0.879 -0.284,-0.85 -0.368,-0.822 -0.369,-0.822 -0.425,-0.794 -0.482,-0.766 -0.51,-0.765 -0.539,-0.709 -0.595,-0.68 -0.624,-0.652 -0.652,-0.623 -0.68,-0.596 -0.737,-0.538 -0.737,-0.511 -0.765,-0.481 -0.794,-0.426 -0.822,-0.396 -0.822,-0.341 -0.851,-0.311 -0.878,-0.256 -0.879,-0.226 -0.879,-0.142 -0.879,-0.142 -0.907,-0.056 -0.907,-0.029 -127.332,-0.028 v 0.028 l -0.907,0.029 -0.907,0.056 -0.879,0.114 -0.879,0.17 -0.878,0.226 -0.879,0.256 -0.851,0.283 -0.822,0.369 -0.822,0.368 -0.793,0.425 -0.766,0.482 -0.765,0.51 -0.709,0.539 -0.68,0.595 -0.652,0.624 -0.624,0.652 -0.595,0.68 -0.538,0.737 -0.511,0.737 -0.482,0.766 -0.425,0.793 -0.397,0.822 -0.34,0.822 -0.312,0.851 -0.255,0.878 -0.227,0.879 -0.141,0.879 -0.142,0.879 -0.057,0.907 -0.028,0.907 z"
           style="fill:none;stroke:#000000;stroke-width:0.73699;stroke-linecap:butt;stroke-linejoin:round;stroke-miterlimit:10;stroke-dasharray:none;stroke-opacity:1"
           id="path1016" />
      </g>
      <g
         id="g1018">
        <text
           transform="matrix(1,0,0,-1,784.006,386.787)"
           style="font-variant:normal;font-weight:normal;font-size:24.009px;font-family:'Comic Sans MS';-inkscape-font-specification:ComicSansMS;writing-mode:lr-tb;fill:#000000;fill-opacity:1;fill-rule:nonzero;stroke:none"
           id="text1022"><tspan
             x="0 14.981616 21.560081 33.852692 48.066017 60.670742 72.171051 84.463661 95.771904 108.95284 122.95009"
             y="0"
             sodipodi:role="line"
             id="tspan1020">Elaborated</tspan></text>
      </g>
      <g
         id="g1024">
        <text
           transform="matrix(1,0,0,-1,808.611,357.987)"
           style="font-variant:normal;font-weight:normal;font-size:24.009px;font-family:'Comic Sans MS';-inkscape-font-specification:ComicSansMS;writing-mode:lr-tb;fill:#000000;fill-opacity:1;fill-rule:nonzero;stroke:none"
           id="text1028"><tspan
             x="0 11.692383 24.201073 36.685753 48.258091 60.550697 73.731636"
             y="0"
             sodipodi:role="line"
             id="tspan1026">source</tspan></text>
      </g>
      <g
         id="g1030">
        <text
           transform="matrix(1,0,0,-1,799.512,329.187)"
           style="font-variant:normal;font-weight:normal;font-size:24.009px;font-family:'Comic Sans MS';-inkscape-font-specification:ComicSansMS;writing-mode:lr-tb;fill:#000000;fill-opacity:1;fill-rule:nonzero;stroke:none"
           id="text1034"><tspan
             x="0 12.796797 24.297108 36.901833 49.674622 61.174931 73.371506"
             y="0"
             sodipodi:role="line"
             id="tspan1032">program</tspan></text>
      </g>
      <path
         d="m 706.847,255.883 v 0 0.312 l 0.029,0.284 0.028,0.312 0.057,0.283 0.085,0.312 0.085,0.283 0.085,0.284 0.141,0.283 0.114,0.255 0.142,0.284 0.17,0.255 0.17,0.227 0.17,0.255 0.198,0.227 0.199,0.226 0.226,0.199 0.227,0.198 0.255,0.17 0.227,0.17 0.284,0.17 0.255,0.142 0.255,0.114 0.283,0.141 0.284,0.085 0.283,0.085 0.312,0.085 0.283,0.057 0.312,0.028 0.284,0.029 h 0.312 127.133 v 0 h 0.312 l 0.284,-0.029 0.312,-0.028 0.283,-0.057 0.312,-0.085 0.283,-0.085 0.284,-0.085 0.283,-0.141 0.255,-0.114 0.284,-0.142 0.255,-0.17 0.227,-0.17 0.255,-0.17 0.227,-0.198 0.226,-0.199 0.199,-0.226 0.198,-0.227 0.17,-0.255 0.17,-0.227 0.17,-0.284 0.142,-0.255 0.114,-0.255 0.141,-0.283 0.085,-0.284 0.085,-0.283 0.085,-0.312 0.057,-0.283 0.028,-0.312 0.029,-0.284 v -0.312 l 0.028,-23.017 v 0 -0.312 l -0.028,-0.283 -0.029,-0.312 -0.056,-0.283 -0.085,-0.312 -0.085,-0.284 -0.085,-0.283 -0.142,-0.284 -0.114,-0.255 -0.141,-0.255 -0.17,-0.283 -0.17,-0.227 -0.17,-0.255 -0.199,-0.227 -0.198,-0.227 -0.227,-0.198 -0.227,-0.199 -0.255,-0.17 -0.227,-0.17 -0.255,-0.17 -0.283,-0.142 -0.255,-0.113 -0.284,-0.142 -0.283,-0.085 -0.284,-0.085 -0.312,-0.085 -0.283,-0.056 -0.312,-0.029 -0.283,-0.028 h -0.312 l -127.162,-0.029 v 0 h -0.312 l -0.284,0.029 -0.312,0.028 -0.283,0.057 -0.312,0.085 -0.283,0.085 -0.284,0.085 -0.283,0.142 -0.255,0.113 -0.255,0.142 -0.284,0.17 -0.227,0.17 -0.255,0.17 -0.227,0.198 -0.226,0.199 -0.199,0.227 -0.198,0.226 -0.17,0.256 -0.17,0.226 -0.17,0.255 -0.142,0.284 -0.114,0.255 -0.141,0.284 -0.085,0.283 -0.085,0.283 -0.085,0.312 -0.057,0.284 -0.028,0.312 -0.029,0.283 v 0.312 z"
         style="fill:#00b0f0;fill-opacity:1;fill-rule:evenodd;stroke:none"
         id="path1036" />
      <g
         id="g1038">
        <path
           d="m 706.847,255.883 v 0 0.312 l 0.029,0.284 0.028,0.312 0.057,0.283 0.085,0.312 0.085,0.283 0.085,0.284 0.141,0.283 0.114,0.255 0.142,0.284 0.17,0.255 0.17,0.227 0.17,0.255 0.198,0.227 0.199,0.226 0.226,0.199 0.227,0.198 0.255,0.17 0.227,0.17 0.284,0.17 0.255,0.142 0.255,0.114 0.283,0.141 0.284,0.085 0.283,0.085 0.312,0.085 0.283,0.057 0.312,0.028 0.284,0.029 h 0.312 127.133 v 0 h 0.312 l 0.284,-0.029 0.312,-0.028 0.283,-0.057 0.312,-0.085 0.283,-0.085 0.284,-0.085 0.283,-0.141 0.255,-0.114 0.284,-0.142 0.255,-0.17 0.227,-0.17 0.255,-0.17 0.227,-0.198 0.226,-0.199 0.199,-0.226 0.198,-0.227 0.17,-0.255 0.17,-0.227 0.17,-0.284 0.142,-0.255 0.114,-0.255 0.141,-0.283 0.085,-0.284 0.085,-0.283 0.085,-0.312 0.057,-0.283 0.028,-0.312 0.029,-0.284 v -0.312 l 0.028,-23.017 v 0 -0.312 l -0.028,-0.283 -0.029,-0.312 -0.056,-0.283 -0.085,-0.312 -0.085,-0.284 -0.085,-0.283 -0.142,-0.284 -0.114,-0.255 -0.141,-0.255 -0.17,-0.283 -0.17,-0.227 -0.17,-0.255 -0.199,-0.227 -0.198,-0.227 -0.227,-0.198 -0.227,-0.199 -0.255,-0.17 -0.227,-0.17 -0.255,-0.17 -0.283,-0.142 -0.255,-0.113 -0.284,-0.142 -0.283,-0.085 -0.284,-0.085 -0.312,-0.085 -0.283,-0.056 -0.312,-0.029 -0.283,-0.028 h -0.312 l -127.162,-0.029 v 0 h -0.312 l -0.284,0.029 -0.312,0.028 -0.283,0.057 -0.312,0.085 -0.283,0.085 -0.284,0.085 -0.283,0.142 -0.255,0.113 -0.255,0.142 -0.284,0.17 -0.227,0.17 -0.255,0.17 -0.227,0.198 -0.226,0.199 -0.199,0.227 -0.198,0.226 -0.17,0.256 -0.17,0.226 -0.17,0.255 -0.142,0.284 -0.114,0.255 -0.141,0.284 -0.085,0.283 -0.085,0.283 -0.085,0.312 -0.057,0.284 -0.028,0.312 -0.029,0.283 v 0.312 z"
           style="fill:none;stroke:#000000;stroke-width:0.73699;stroke-linecap:butt;stroke-linejoin:round;stroke-miterlimit:10;stroke-dasharray:none;stroke-opacity:1"
           id="path1040" />
      </g>
      <g
         id="g1042">
        <text
           transform="matrix(1,0,0,-1,717.591,236.409)"
           style="font-variant:normal;font-weight:normal;font-size:20.013px;font-family:'Comic Sans MS';-inkscape-font-specification:ComicSansMS;writing-mode:lr-tb;fill:#000000;fill-opacity:1;fill-rule:nonzero;stroke:none"
           id="text1046"><tspan
             x="0 13.889022 24.375834 36.183502 45.96986 55.456024 61.059662 70.545822 80.952583 90.438744 96.042389 106.62926"
             y="0"
             sodipodi:role="line"
             id="tspan1044">Substitution</tspan></text>
      </g>
      <path
         d="m 559.389,413.291 h 141.987 v 27.581 l 55.163,-55.162 -55.163,-55.162 v 27.581 H 559.389 Z"
         style="fill:#66ff33;fill-opacity:1;fill-rule:evenodd;stroke:none"
         id="path1048" />
      <g
         id="g1050">
        <path
           d="m 559.389,413.291 h 141.987 v 27.581 l 55.163,-55.162 -55.163,-55.162 v 27.581 H 559.389 Z"
           style="fill:none;stroke:#000000;stroke-width:0.73699;stroke-linecap:butt;stroke-linejoin:round;stroke-miterlimit:10;stroke-dasharray:none;stroke-opacity:1"
           id="path1052" />
      </g>
      <g
         id="g1054">
        <text
           transform="matrix(1,0,0,-1,618.208,389.707)"
           style="font-variant:normal;font-weight:normal;font-size:20.013px;font-family:'Comic Sans MS';-inkscape-font-specification:ComicSansMS;writing-mode:lr-tb;fill:#000000;fill-opacity:1;fill-rule:nonzero;stroke:none"
           id="text1058"><tspan
             x="0 14.60949 25.296432 35.983376 41.466934"
             y="0"
             sodipodi:role="line"
             id="tspan1056">Apply</tspan></text>
      </g>
      <g
         id="g1060">
        <text
           transform="matrix(1,0,0,-1,587.707,365.698)"
           style="font-variant:normal;font-weight:normal;font-size:20.013px;font-family:'Comic Sans MS';-inkscape-font-specification:ComicSansMS;writing-mode:lr-tb;fill:#000000;fill-opacity:1;fill-rule:nonzero;stroke:none"
           id="text1064"><tspan
             x="0 9.7063046 20.193117 32.000786 41.787144 51.273308 56.876945 66.363106 76.769867 86.256027 91.859673 102.44655"
             y="0"
             sodipodi:role="line"
             id="tspan1062">substitution</tspan></text>
      </g>
      <g
         id="g1066">
        <path
           d="m 776.211,261.836 v 34.271 h -75.033 v 17.433"
           style="fill:none;stroke:#66ff33;stroke-width:6.00935;stroke-linecap:butt;stroke-linejoin:round;stroke-miterlimit:10;stroke-dasharray:none;stroke-opacity:1"
           id="path1068" />
      </g>
      <path
         d="m 701.178,330.378 9.014,-18.028 h -18.028 z"
         style="fill:#66ff33;fill-opacity:1;fill-rule:evenodd;stroke:none"
         id="path1070" />
      <text
         xml:space="preserve"
         style="font-style:normal;font-variant:normal;font-weight:normal;font-stretch:normal;font-size:22px;line-height:1.45;font-family:Cambria;-inkscape-font-specification:Cambria;text-align:start;letter-spacing:0px;word-spacing:0px;text-anchor:start;fill:#ffffff;fill-opacity:1;stroke-width:0.75"
         x="41.273293"
         y="-74.783241"
         id="text8360"
         transform="scale(1,-1)"><tspan
           sodipodi:role="line"
           id="tspan8358"
           style="font-style:normal;font-variant:normal;font-weight:normal;font-stretch:normal;font-size:22px;font-family:Cambria;-inkscape-font-specification:Cambria;text-align:start;text-anchor:start;fill:#ffffff;fill-opacity:1;stroke-width:0.75"
           x="41.273293"
           y="-74.783241">The essence of ML type inference, Pottier &amp; Remy,</tspan><tspan
           sodipodi:role="line"
           style="font-style:normal;font-variant:normal;font-weight:normal;font-stretch:normal;font-size:22px;font-family:Cambria;-inkscape-font-specification:Cambria;text-align:start;text-anchor:start;fill:#ffffff;fill-opacity:1;stroke-width:0.75"
           x="41.273293"
           y="-42.88324"
           id="tspan8362">In ATAPL, Pierce, 2005.</tspan></text>
    </g>
    <text
       xml:space="preserve"
       style="font-size:7.05556px;line-height:1.15;font-family:'Open Sans';-inkscape-font-specification:'Open Sans';text-align:end;letter-spacing:0px;word-spacing:0px;text-anchor:end;stroke-width:0.264583"
       x="276.38019"
       y="201.86832"
       id="text10477"><tspan
         sodipodi:role="line"
         id="tspan10475"
         style="font-size:7.05556px;text-align:end;text-anchor:end;stroke-width:0.264583"
         x="276.38019"
         y="201.86832">Type inference as constraint solving</tspan><tspan
         sodipodi:role="line"
         style="font-size:7.05556px;text-align:end;text-anchor:end;stroke-width:0.264583"
         x="276.38019"
         y="209.98221"
         id="tspan10611">Simon Peyton Jones, Zurihac 2019</tspan></text>
  </g>
</svg>
